<?xml version="1.0" encoding="utf-8"?>
<!-- Generator: Adobe Illustrator 22.1.0, SVG Export Plug-In . SVG Version: 6.00 Build 0)  -->
<svg version="1.1" id="Layer_1" xmlns="http://www.w3.org/2000/svg" xmlns:xlink="http://www.w3.org/1999/xlink" x="0px" y="0px"
	 viewBox="0 0 510.8 562" style="enable-background:new 0 0 510.8 562;" xml:space="preserve">
<style type="text/css">
	.st0{fill:#CC99CC;}
	.st1{fill:none;stroke:#000000;stroke-width:13;stroke-miterlimit:10;}
</style>
<title>logo1</title>
<path class="st0" d="M258.5,562C229.8,533.8-44.2,258.7,34.8,110.4c8-15,32.5-60.9,74.9-67.2c90.1-20.3,170.9,68.3,170.9,68.3
	s46.2-41.5,97.2-48c34.9-4.5,74.7,6.8,98.3,26.7c70.4,59.3,20,214.2-34,302.1C391.1,475.7,318.3,529.1,258.5,562z"/>
<path d="M339.9,64.7v165c-0.2,2.3-2.2,3.9-4.5,3.7c-2-0.2-3.5-1.7-3.7-3.7v-165c0.2,2.3,2.2,3.9,4.5,3.7
	C338.1,68.2,339.7,66.7,339.9,64.7z"/>
<path d="M339.9,64.7L339.9,64.7c-0.2,2.3-2.2,3.9-4.5,3.7c-2-0.2-3.5-1.7-3.7-3.7l0,0c0.2-2.3,2.2-3.9,4.5-3.7
	C338.1,61.1,339.6,62.7,339.9,64.7L339.9,64.7z"/>
<path d="M327,340.4c1.7,0.9,2.3,2.9,1.6,4.6c-0.1,0.2-0.2,0.4-0.3,0.5c-0.8,1-2,1.5-3.3,1.5c-0.8,0-1.5-0.2-2.2-0.6
	c-1.7-0.9-2.4-2.9-1.6-4.6c0,0,0,0,0,0s0.1-0.2,0.1-0.2C322.6,339.7,325.1,339.3,327,340.4z"/>
<path d="M325,347c1.3,0,2.5-0.5,3.3-1.5c-7.4,12.5-17.8,22.9-30.2,30.5c-0.8-1.1-2.1-1.7-3.5-1.7c-2.2-0.1-4,1.6-4.1,3.8v2.2
	c-6.2,3.1-12.6,5.5-19.3,7.3c-0.4,0.1-0.7,0.2-1.1,0.2c-2.2,0.1-4-1.6-4.1-3.7c0.1-1.8,1.3-3.3,3-3.6c22.4-5.9,41.2-19.8,52.2-38.6
	c-0.8,1.7-0.1,3.8,1.6,4.6C323.4,346.8,324.2,347,325,347z"/>
<path d="M402.3,236.8l-73.8,108.5c-0.1,0.1-0.1,0.2-0.2,0.3c0.1-0.2,0.2-0.4,0.3-0.5c0.8-1.7,0.1-3.7-1.6-4.6
	c-1.9-1.1-4.3-0.6-5.7,1.1c0,0.1-0.1,0.2-0.1,0.2c0.1-0.2,0.2-0.3,0.3-0.5L395.2,233c4.5-7.5,1.6-16.9-6.6-21
	c-8-4.1-18.1-1.6-22.8,5.7l-39.1,51c-1.4,1.7-3.9,2.1-5.7,0.9c-1.7-1-2.2-3.2-1.2-4.9c0.1-0.1,0.2-0.2,0.2-0.3l38.9-50.7
	c7-10.9,22.4-14.6,34.4-8.2S409.3,225.9,402.3,236.8z"/>
<path d="M307,64.7v142.5c-0.2,2.3-2.2,3.9-4.5,3.7c-2-0.2-3.5-1.7-3.7-3.7V64.9c0.3,2.3,2.4,3.9,4.6,3.6
	C305.3,68.2,306.8,66.7,307,64.7C307,64.7,307,64.6,307,64.7L307,64.7z"/>
<path d="M307,64.6c0,0,0,0.1,0,0.1c-0.2,2.3-2.2,4-4.5,3.8c-1.9-0.2-3.5-1.7-3.7-3.6v-0.2c0.2-2.3,2.2-4,4.5-3.8
	C305.2,61.1,306.8,62.6,307,64.6L307,64.6z"/>
<path d="M302.9,61c-2.1-0.1-4,1.6-4.1,3.7v0.2c0-0.1,0-0.1,0-0.2c0-10.4,9.2-18.8,20.5-18.8s20.5,8.3,20.5,18.6
	c-0.2-2.3-2.3-3.9-4.5-3.7c-2,0.2-3.5,1.8-3.7,3.7c0-6.2-5.5-11.2-12.3-11.2s-12.3,5-12.3,11.1C306.8,62.5,305,60.9,302.9,61z"/>
<path d="M298.8,378.1v144.1c-0.2,2.3-2.2,4-4.5,3.8c-2-0.2-3.6-1.8-3.8-3.8V380.3c2.6-1.3,5.1-2.7,7.6-4.2
	C298.5,376.6,298.8,377.3,298.8,378.1z"/>
<path d="M294.6,374.3c1.4,0,2.6,0.6,3.5,1.7c-2.4,1.5-5,2.9-7.6,4.2v-2.2C290.7,375.9,292.5,374.3,294.6,374.3z"/>
<path d="M290.5,184.7v22.5c-0.2,2.3-2.2,3.9-4.5,3.7c-2-0.2-3.5-1.7-3.7-3.7v-22.5c0.2,2.3,2.2,3.9,4.5,3.7
	C288.8,188.2,290.3,186.6,290.5,184.7z"/>
<ellipse cx="286.4" cy="184.7" rx="4.1" ry="3.8"/>
<path d="M257.6,184.7v22.5c-0.2,2.3-2.2,3.9-4.5,3.7c-2-0.2-3.5-1.7-3.7-3.7v-22.3c0.3,2.3,2.4,3.9,4.6,3.6
	C256,188.2,257.5,186.6,257.6,184.7l0-0.1C257.6,184.6,257.6,184.6,257.6,184.7z"/>
<path d="M257.6,184.6v0.1c-0.2,2.3-2.2,4-4.5,3.8c-1.9-0.2-3.5-1.7-3.7-3.6v-0.2c0.2-2.3,2.2-3.9,4.5-3.7
	C255.9,181.2,257.4,182.6,257.6,184.6z"/>
<path d="M249.4,184.7c0-10.4,9.2-18.8,20.6-18.8s20.5,8.4,20.5,18.8c-0.2-2.3-2.2-3.9-4.5-3.7c-2,0.2-3.5,1.7-3.7,3.7
	c0-6.2-5.5-11.2-12.3-11.2s-12.3,5-12.3,11.1c-0.3-2.3-2.3-3.9-4.6-3.6C251.1,181.2,249.6,182.8,249.4,184.7l0,0.2
	C249.4,184.8,249.4,184.7,249.4,184.7z"/>
<path d="M241.2,184.7v22.5c-0.2,2.3-2.2,4-4.5,3.8c-2-0.2-3.6-1.8-3.8-3.8v-22.5c0.2,2.3,2.2,4,4.5,3.8
	C239.4,188.3,241,186.7,241.2,184.7z"/>
<path d="M241.2,184.7c0.2,2.3-1.5,4.3-3.7,4.5c-2.3,0.2-4.3-1.5-4.5-3.7c-0.2-2.3,1.5-4.3,3.7-4.5c0.1,0,0.2,0,0.4,0
	C239.2,180.9,241.1,182.5,241.2,184.7z"/>
<path d="M221.8,380.5c2,0.4,3.3,2.4,2.9,4.4c0,0.1,0,0.2-0.1,0.2c-0.6,1.7-2.2,2.8-3.9,2.7l0,0c-0.4,0-0.8,0-1.1-0.1
	c-6.7-1.7-13.2-4.2-19.5-7.2v-2.4c-0.1-2.2-1.9-3.8-4.1-3.8c-1.4,0-2.8,0.7-3.6,1.9c-25.3-15.6-41.4-41.9-41.6-70.9
	c0.3,2.3,2.3,3.9,4.6,3.6c1.9-0.2,3.4-1.8,3.6-3.7C159.2,340.3,184.8,371,221.8,380.5z"/>
<path d="M208.3,184.7v22.5c-0.2,2.3-2.2,3.9-4.5,3.7c-2-0.2-3.5-1.7-3.7-3.7v-22.3c0.3,2.3,2.4,3.9,4.6,3.6
	C206.6,188.2,208.1,186.6,208.3,184.7l0-0.1C208.3,184.6,208.3,184.6,208.3,184.7z"/>
<path d="M208.3,184.6v0.1c-0.2,2.3-2.2,4-4.5,3.8c-1.9-0.2-3.5-1.7-3.7-3.6v-0.2c0.2-2.3,2.2-3.9,4.5-3.7
	C206.5,181.2,208.1,182.6,208.3,184.6z"/>
<path d="M200.1,184.7c0-10.4,9.2-18.8,20.6-18.8s20.6,8.4,20.6,18.8c-0.2-2.3-2.2-4-4.5-3.8c-2,0.2-3.6,1.8-3.8,3.8
	c0-6.2-5.5-11.2-12.3-11.2s-12.3,5-12.3,11.1c-0.3-2.3-2.3-3.9-4.6-3.6C201.8,181.2,200.3,182.8,200.1,184.7l0,0.2
	C200.1,184.8,200.1,184.7,200.1,184.7z"/>
<path d="M200.1,380.5v141.7c-0.2,2.3-2.2,3.9-4.5,3.7c-2-0.2-3.5-1.7-3.7-3.7V378.1c0-0.7,0.2-1.3,0.5-1.9
	C194.9,377.7,197.4,379.2,200.1,380.5z"/>
<path d="M200.1,378.1v2.4c-2.7-1.3-5.2-2.8-7.7-4.3c0.8-1.2,2.1-1.9,3.6-1.9C198.1,374.2,200,375.9,200.1,378.1z"/>
<path d="M191.9,102.2v105c-0.2,2.3-2.2,4-4.5,3.8c-2-0.2-3.6-1.8-3.8-3.8v-105c0.2,2.3,2.2,4,4.5,3.8
	C190.1,105.8,191.7,104.2,191.9,102.2z"/>
<path d="M191.9,102.2c0.2,2.3-1.5,4.3-3.7,4.5c-2.3,0.2-4.3-1.5-4.5-3.7c-0.2-2.3,1.5-4.3,3.7-4.5c0.1,0,0.3,0,0.4,0
	C189.9,98.3,191.8,100,191.9,102.2z"/>
<path d="M159,304.9v0.4c-0.2,2.3-2.2,3.9-4.5,3.7c-1.9-0.2-3.5-1.7-3.7-3.6c0-0.2,0-0.3,0-0.5c0.2-2.3,2.2-3.9,4.5-3.7
	C157.2,301.4,158.8,302.9,159,304.9L159,304.9z"/>
<path d="M159,102.2v202.7c-0.2-2.3-2.2-3.9-4.5-3.7c-2,0.2-3.5,1.7-3.7,3.7V102.4c0.3,2.3,2.4,3.9,4.6,3.6
	C157.3,105.7,158.8,104.1,159,102.2l0-0.1C159,102.1,159,102.1,159,102.2z"/>
<path d="M159,102.1v0.1c-0.2,2.3-2.2,4-4.5,3.8c-1.9-0.2-3.5-1.7-3.7-3.6v-0.2c0.2-2.3,2.2-3.9,4.5-3.7
	C157.2,98.7,158.7,100.1,159,102.1z"/>
<path d="M150.8,102.2c0-10.3,9.2-18.8,20.6-18.8s20.6,8.4,20.6,18.8c-0.2-2.3-2.2-4-4.5-3.8c-2,0.2-3.6,1.8-3.8,3.8
	c0-6.2-5.5-11.2-12.3-11.2S159,96,159,102.1c-0.3-2.3-2.3-3.9-4.6-3.6C152.4,98.8,150.9,100.3,150.8,102.2v0.2
	C150.8,102.3,150.8,102.3,150.8,102.2z"/>
<path class="st1" d="M159,102.1c0,0,0,0.1,0,0.1v202.7"/>
<line class="st1" x1="150.8" y1="304.9" x2="150.8" y2="102.4"/>
<path class="st1" d="M191.9,102.2v105c-0.2,2.3-2.2,4-4.5,3.8c-2-0.2-3.6-1.8-3.8-3.8v-105"/>
<path class="st1" d="M321.2,341.8c0.1-0.2,0.2-0.3,0.3-0.5L395.2,233c4.5-7.5,1.6-16.9-6.6-21c-8-4.1-18.1-1.6-22.8,5.7l-39.1,51
	c-1.4,1.7-3.9,2.1-5.7,0.9c-1.7-1-2.2-3.2-1.2-4.9c0.1-0.1,0.2-0.2,0.2-0.3l38.9-50.7c7-10.9,22.4-14.6,34.4-8.2s16,20.5,9,31.4
	l-73.9,108.4c-0.1,0.1-0.1,0.2-0.2,0.3"/>
<path class="st1" d="M192.4,376.2c-25.3-15.6-41.4-41.9-41.6-70.9c0-0.2,0-0.3,0-0.5c0.2-2.3,2.2-3.9,4.5-3.7c2,0.2,3.5,1.7,3.7,3.7
	v0.4c0.2,35,25.8,65.7,62.8,75.3c2,0.4,3.3,2.4,2.9,4.4c0,0.1,0,0.2-0.1,0.2c-0.6,1.7-2.2,2.8-3.9,2.7l0,0c-0.4,0-0.8,0-1.1-0.1
	c-6.7-1.7-13.2-4.2-19.5-7.2"/>
<path class="st1" d="M290.5,380.3c-6.2,3.1-12.6,5.5-19.3,7.3c-0.4,0.1-0.7,0.2-1.1,0.2c-2.2,0.1-4-1.6-4.1-3.7
	c0.1-1.8,1.3-3.3,3-3.6c22.4-5.9,41.2-19.8,52.2-38.6c0,0,0,0,0,0s0.1-0.2,0.1-0.2c1.3-1.8,3.8-2.2,5.7-1.1c1.7,0.9,2.3,2.9,1.6,4.6
	c-0.1,0.2-0.2,0.4-0.3,0.5c-7.4,12.5-17.8,22.9-30.2,30.5"/>
<path class="st1" d="M191.9,102.2c-0.2,2.3-2.2,4-4.5,3.8c-2-0.2-3.6-1.8-3.8-3.8c0-6.2-5.5-11.2-12.3-11.2S159,96,159,102.1v0.1
	c-0.2,2.3-2.2,4-4.5,3.8c-1.9-0.2-3.5-1.7-3.7-3.6c0-0.1,0-0.1,0-0.2c0-10.3,9.2-18.8,20.6-18.8S191.9,91.8,191.9,102.2z"/>
<path class="st1" d="M200.1,184.9c0-0.1,0-0.1,0-0.2c0-10.4,9.2-18.8,20.6-18.8s20.6,8.4,20.6,18.8"/>
<path class="st1" d="M233,184.7c0-6.2-5.5-11.2-12.3-11.2s-12.3,5-12.3,11.1"/>
<path class="st1" d="M208.3,184.6c0,0,0,0.1,0,0.1v22.5c-0.2,2.3-2.2,3.9-4.5,3.7c-2-0.2-3.5-1.7-3.7-3.7v-22.5
	c0.2-2.3,2.2-3.9,4.5-3.7C206.5,181.2,208.1,182.6,208.3,184.6L208.3,184.6z"/>
<path class="st1" d="M241.2,184.7v22.5c-0.2,2.3-2.2,4-4.5,3.8c-2-0.2-3.6-1.8-3.8-3.8v-22.5c0.2-2.3,2.2-4,4.5-3.8
	C239.4,181.1,241,182.7,241.2,184.7z"/>
<path class="st1" d="M298.8,64.9c0-0.1,0-0.1,0-0.2c0-10.4,9.2-18.8,20.5-18.8s20.5,8.3,20.5,18.6"/>
<path class="st1" d="M331.6,64.7c0-6.2-5.5-11.2-12.3-11.2s-12.3,5-12.3,11.1"/>
<path class="st1" d="M307,64.6v142.6c-0.2,2.3-2.2,3.9-4.5,3.7c-2-0.2-3.5-1.7-3.7-3.7V64.7c0.2-2.3,2.2-4,4.5-3.8
	C305.2,61.1,306.8,62.6,307,64.6z"/>
<path class="st1" d="M339.9,64.7v165c-0.2,2.3-2.2,3.9-4.5,3.7c-2-0.2-3.5-1.7-3.7-3.7v-165c0.2-2.3,2.2-3.9,4.5-3.7
	c2,0.2,3.5,1.7,3.7,3.7V64.7z"/>
<path class="st1" d="M249.4,184.9c0-0.1,0-0.1,0-0.2c0-10.4,9.2-18.8,20.6-18.8s20.5,8.4,20.5,18.8"/>
<path class="st1" d="M282.3,184.7c0-6.2-5.5-11.2-12.3-11.2s-12.3,5-12.3,11.1"/>
<path class="st1" d="M257.6,184.6c0,0,0,0.1,0,0.1v22.5c-0.2,2.3-2.2,3.9-4.5,3.7c-2-0.2-3.5-1.7-3.7-3.7v-22.5
	c0.2-2.3,2.2-3.9,4.5-3.7C255.8,181.2,257.4,182.6,257.6,184.6L257.6,184.6z"/>
<path class="st1" d="M290.5,184.7v22.5c-0.2,2.3-2.2,3.9-4.5,3.7c-2-0.2-3.5-1.7-3.7-3.7v-22.5c0.2-2.3,2.2-3.9,4.5-3.7
	C288.8,181.2,290.3,182.7,290.5,184.7z"/>
<path class="st1" d="M200.1,380.5v141.7c-0.2,2.3-2.2,3.9-4.5,3.7c-2-0.2-3.5-1.7-3.7-3.7V378.1c0-0.7,0.2-1.3,0.5-1.9
	c0.8-1.2,2.1-1.9,3.6-1.9c2.2-0.1,4,1.6,4.1,3.8V380.5z"/>
<path class="st1" d="M298.1,376c0.4,0.6,0.7,1.3,0.7,2v144.1c-0.2,2.3-2.2,4-4.5,3.8c-2-0.2-3.6-1.8-3.8-3.8V378.1
	c0.1-2.2,2-3.8,4.1-3.8C296,374.3,297.3,374.9,298.1,376z"/>
<line class="st1" x1="290.8" y1="526.1" x2="193.5" y2="526.1"/>
<path d="M1.4-209.1c0.8,0,1.5-0.7,1.5-1.5s-0.7-1.5-1.5-1.5s-1.5,0.7-1.5,1.5S0.6-209.1,1.4-209.1z"/>
</svg>
